<svg xmlns="http://www.w3.org/2000/svg" viewBox="1124 1778 50 50">
  <defs>
    <style>
      .cls-1 {
        fill: #39a8ef;
      }
    </style>
  </defs>
  <g id="settings_1_" data-name="settings (1)" transform="translate(1124 1778)">
    <path id="Path_414" data-name="Path 414" class="cls-1" d="M47.426,19.444H42.748a1.8,1.8,0,0,1-1.27-3.066l3.307-3.306a2.576,2.576,0,0,0,0-3.642L40.569,5.215a2.636,2.636,0,0,0-3.642,0L33.621,8.521a1.8,1.8,0,0,1-3.066-1.269V2.574A2.577,2.577,0,0,0,27.981,0H22.019a2.577,2.577,0,0,0-2.574,2.574V7.252a1.8,1.8,0,0,1-3.066,1.269L13.072,5.215a2.636,2.636,0,0,0-3.642,0L5.215,9.431a2.576,2.576,0,0,0,0,3.642l3.307,3.306a1.8,1.8,0,0,1-1.27,3.066H2.574A2.577,2.577,0,0,0,0,22.019v5.962a2.577,2.577,0,0,0,2.574,2.575H7.252a1.8,1.8,0,0,1,1.27,3.066L5.215,36.928a2.576,2.576,0,0,0,0,3.642l4.216,4.216a2.634,2.634,0,0,0,3.642,0l3.306-3.307a1.8,1.8,0,0,1,3.066,1.27v4.678A2.577,2.577,0,0,0,22.019,50h5.962a2.577,2.577,0,0,0,2.574-2.574V42.748a1.8,1.8,0,0,1,3.066-1.27l3.306,3.307a2.636,2.636,0,0,0,3.642,0l4.216-4.216a2.576,2.576,0,0,0,0-3.642l-3.307-3.306a1.8,1.8,0,0,1,1.271-3.066h4.678A2.577,2.577,0,0,0,50,27.981V22.019A2.577,2.577,0,0,0,47.426,19.444Zm.722,8.537a.723.723,0,0,1-.722.722H42.748a3.648,3.648,0,0,0-2.58,6.228l3.307,3.306a.723.723,0,0,1,0,1.022L39.26,43.476a.723.723,0,0,1-1.022,0l-3.306-3.307a3.648,3.648,0,0,0-6.228,2.58v4.678a.723.723,0,0,1-.722.722H22.019a.723.723,0,0,1-.722-.722V42.748a3.591,3.591,0,0,0-2.252-3.37,3.69,3.69,0,0,0-1.419-.288,3.6,3.6,0,0,0-2.556,1.078l-3.306,3.307a.723.723,0,0,1-1.022,0L6.524,39.259a.723.723,0,0,1,0-1.022l3.307-3.306A3.647,3.647,0,0,0,7.252,28.7H2.574a.723.723,0,0,1-.722-.722V22.019a.723.723,0,0,1,.722-.722H7.252a3.648,3.648,0,0,0,2.58-6.228L6.524,11.762a.723.723,0,0,1,0-1.022L10.74,6.524a.723.723,0,0,1,1.022,0l3.306,3.306A3.648,3.648,0,0,0,21.3,7.252V2.574a.723.723,0,0,1,.722-.722h5.962a.723.723,0,0,1,.723.722V7.252a3.648,3.648,0,0,0,6.228,2.58l3.306-3.306a.723.723,0,0,1,1.022,0l4.216,4.216a.723.723,0,0,1,0,1.022l-3.307,3.306a3.648,3.648,0,0,0,2.58,6.228h4.678a.722.722,0,0,1,.722.721Z"/>
    <path id="Path_415" data-name="Path 415" class="cls-1" d="M26.333,18a8.333,8.333,0,1,0,8.333,8.333A8.342,8.342,0,0,0,26.333,18Zm0,14.815a6.481,6.481,0,1,1,6.481-6.481A6.49,6.49,0,0,1,26.333,32.815Z" transform="translate(-1.333 -1.333)"/>
  </g>
</svg>
